# Blender 4.0.2
# www.blender.org
mtllib granate.mtl
o Cylinder
v -0.003817 0.055332 -0.215506
v -0.003817 0.493268 -0.116314
v 0.038901 0.055332 -0.211299
v 0.019550 0.493268 -0.114012
v 0.079978 0.055332 -0.198838
v 0.042019 0.493268 -0.107196
v 0.117835 0.055332 -0.178603
v 0.062726 0.493268 -0.096128
v 0.151016 0.055332 -0.151372
v 0.080877 0.493268 -0.081232
v 0.178248 0.055332 -0.118190
v 0.095772 0.493268 -0.063082
v 0.198482 0.055332 -0.080334
v 0.106841 0.493268 -0.042374
v 0.210943 0.055332 -0.039257
v 0.113657 0.493268 -0.019905
v 0.215150 0.055332 0.003462
v 0.115958 0.493268 0.003462
v 0.210943 0.055332 0.046180
v 0.113657 0.493268 0.026829
v 0.198482 0.055332 0.087257
v 0.106841 0.493268 0.049298
v 0.178248 0.055332 0.125114
v 0.095772 0.493268 0.070005
v 0.151016 0.055332 0.158295
v 0.080877 0.493268 0.088156
v 0.117835 0.055332 0.185527
v 0.062726 0.493268 0.103051
v 0.079978 0.055332 0.205762
v 0.042019 0.493268 0.114120
v 0.038901 0.055332 0.218222
v 0.019550 0.493268 0.120936
v -0.003817 0.055332 0.222430
v -0.003817 0.493268 0.123237
v -0.046536 0.055332 0.218222
v -0.027184 0.493268 0.120936
v -0.087613 0.055332 0.205762
v -0.049653 0.493268 0.114120
v -0.125469 0.055332 0.185527
v -0.070361 0.493268 0.103051
v -0.158651 0.055332 0.158295
v -0.088511 0.493268 0.088156
v -0.185882 0.055332 0.125114
v -0.103407 0.493268 0.070005
v -0.206117 0.055332 0.087257
v -0.114475 0.493268 0.049298
v -0.218578 0.055332 0.046180
v -0.121291 0.493268 0.026829
v -0.222785 0.055332 0.003462
v -0.123593 0.493268 0.003462
v -0.218578 0.055332 -0.039257
v -0.121291 0.493268 -0.019905
v -0.206117 0.055332 -0.080334
v -0.114475 0.493268 -0.042374
v -0.185882 0.055332 -0.118190
v -0.103407 0.493268 -0.063082
v -0.158651 0.055332 -0.151372
v -0.088511 0.493268 -0.081232
v -0.125469 0.055332 -0.178603
v -0.070361 0.493268 -0.096128
v -0.087613 0.055332 -0.198838
v -0.049653 0.493268 -0.107196
v -0.046536 0.055332 -0.211299
v -0.027184 0.493268 -0.114012
v 0.019550 1.417004 -0.114012
v -0.003817 1.417004 -0.116314
v 0.042019 1.417004 -0.107196
v 0.062726 1.417004 -0.096128
v 0.080877 1.417004 -0.081232
v 0.095772 1.417004 -0.063082
v 0.106841 1.417004 -0.042374
v 0.113657 1.417004 -0.019905
v 0.115958 1.417004 0.003462
v 0.113657 1.417004 0.026829
v 0.106841 1.417004 0.049298
v 0.095772 1.417004 0.070005
v 0.080877 1.417004 0.088156
v 0.062726 1.417004 0.103051
v 0.042019 1.417004 0.114120
v 0.019550 1.417004 0.120936
v -0.003817 1.417004 0.123237
v -0.027184 1.417004 0.120936
v -0.049653 1.417004 0.114120
v -0.070361 1.417004 0.103051
v -0.088511 1.417004 0.088156
v -0.103407 1.417004 0.070005
v -0.114475 1.417004 0.049298
v -0.121291 1.417004 0.026829
v -0.123593 1.417004 0.003462
v -0.121291 1.417004 -0.019905
v -0.114475 1.417004 -0.042374
v -0.103407 1.417004 -0.063082
v -0.088511 1.417004 -0.081232
v -0.070361 1.417004 -0.096128
v -0.049653 1.417004 -0.107196
v -0.027184 1.417004 -0.114012
v 0.019550 1.417004 -0.114012
v -0.003817 1.417004 -0.116314
v 0.042019 1.417004 -0.107196
v 0.062726 1.417004 -0.096128
v 0.080877 1.417004 -0.081232
v 0.095772 1.417004 -0.063082
v 0.106841 1.417004 -0.042374
v 0.113657 1.417004 -0.019905
v 0.115958 1.417004 0.003462
v 0.113657 1.417004 0.026829
v 0.106841 1.417004 0.049298
v 0.095772 1.417004 0.070005
v 0.080877 1.417004 0.088156
v 0.062726 1.417004 0.103051
v 0.042019 1.417004 0.114120
v 0.019550 1.417004 0.120936
v -0.003817 1.417004 0.123237
v -0.027184 1.417004 0.120936
v -0.049653 1.417004 0.114120
v -0.070361 1.417004 0.103051
v -0.088511 1.417004 0.088156
v -0.103407 1.417004 0.070005
v -0.114475 1.417004 0.049298
v -0.121291 1.417004 0.026829
v -0.123593 1.417004 0.003462
v -0.121291 1.417004 -0.019905
v -0.114475 1.417004 -0.042374
v -0.103407 1.417004 -0.063082
v -0.088511 1.417004 -0.081232
v -0.070361 1.417004 -0.096128
v -0.049653 1.417004 -0.107196
v -0.027184 1.417004 -0.114012
v 0.019550 1.417004 -0.114012
v -0.003817 1.417004 -0.116314
v 0.042019 1.417004 -0.107196
v 0.062726 1.417004 -0.096128
v 0.080877 1.417004 -0.081232
v 0.095772 1.417004 -0.063082
v 0.106841 1.417004 -0.042374
v 0.113657 1.417004 -0.019905
v 0.115958 1.417004 0.003462
v 0.113657 1.417004 0.026829
v 0.106841 1.417004 0.049298
v 0.095772 1.417004 0.070005
v 0.080877 1.417004 0.088156
v 0.062726 1.417004 0.103051
v 0.042019 1.417004 0.114120
v 0.019550 1.417004 0.120936
v -0.003817 1.417004 0.123237
v -0.027184 1.417004 0.120936
v -0.049653 1.417004 0.114120
v -0.070361 1.417004 0.103051
v -0.088511 1.417004 0.088156
v -0.103407 1.417004 0.070005
v -0.114475 1.417004 0.049298
v -0.121291 1.417004 0.026829
v -0.123593 1.417004 0.003462
v -0.121291 1.417004 -0.019905
v -0.114475 1.417004 -0.042374
v -0.103407 1.417004 -0.063082
v -0.088511 1.417004 -0.081232
v -0.070361 1.417004 -0.096128
v -0.049653 1.417004 -0.107196
v -0.027184 1.417004 -0.114012
v 0.079892 1.510462 -0.417371
v -0.003817 1.510462 -0.425616
v 0.160384 1.510462 -0.392954
v 0.234566 1.510462 -0.353303
v 0.299586 1.510462 -0.299942
v 0.352948 1.510462 -0.234921
v 0.392599 1.510462 -0.160739
v 0.417016 1.510462 -0.080247
v 0.425260 1.510462 0.003462
v 0.417016 1.510462 0.087171
v 0.392599 1.510462 0.167663
v 0.352948 1.510462 0.241844
v 0.299586 1.510462 0.306865
v 0.234566 1.510462 0.360227
v 0.160384 1.510462 0.399878
v 0.079892 1.510462 0.424294
v -0.003817 1.510462 0.432539
v -0.087526 1.510462 0.424294
v -0.168018 1.510462 0.399878
v -0.242200 1.510462 0.360227
v -0.307221 1.510462 0.306865
v -0.360582 1.510462 0.241844
v -0.400233 1.510462 0.167663
v -0.424650 1.510462 0.087171
v -0.432894 1.510462 0.003462
v -0.424650 1.510462 -0.080247
v -0.400233 1.510462 -0.160739
v -0.360582 1.510462 -0.234921
v -0.307221 1.510462 -0.299942
v -0.242200 1.510462 -0.353303
v -0.168018 1.510462 -0.392954
v -0.087526 1.510462 -0.417371
v 0.079892 2.073112 -0.417371
v -0.003817 2.073112 -0.425616
v 0.160384 2.073112 -0.392954
v 0.234565 2.073112 -0.353303
v 0.299586 2.073112 -0.299942
v 0.352948 2.073112 -0.234921
v 0.392599 2.073112 -0.160739
v 0.417015 2.073112 -0.080247
v 0.425260 2.073112 0.003462
v 0.417015 2.073112 0.087171
v 0.392599 2.073112 0.167663
v 0.352948 2.073112 0.241844
v 0.299586 2.073112 0.306865
v 0.234565 2.073112 0.360227
v 0.160384 2.073112 0.399878
v 0.079892 2.073112 0.424294
v -0.003817 2.073112 0.432539
v -0.087526 2.073112 0.424294
v -0.168018 2.073112 0.399878
v -0.242200 2.073112 0.360227
v -0.307221 2.073112 0.306865
v -0.360582 2.073112 0.241844
v -0.400233 2.073112 0.167663
v -0.424650 2.073112 0.087171
v -0.432895 2.073112 0.003462
v -0.424650 2.073112 -0.080247
v -0.400233 2.073112 -0.160739
v -0.360582 2.073112 -0.234921
v -0.307221 2.073112 -0.299942
v -0.242200 2.073112 -0.353303
v -0.168018 2.073112 -0.392954
v -0.087526 2.073112 -0.417371
v 0.027984 2.160047 -0.156414
v -0.003817 2.160047 -0.159546
v 0.058563 2.160047 -0.147138
v 0.086745 2.160047 -0.132074
v 0.111447 2.160047 -0.111802
v 0.131719 2.160047 -0.087101
v 0.146782 2.160047 -0.058919
v 0.156058 2.160047 -0.028339
v 0.159191 2.160047 0.003462
v 0.156058 2.160047 0.035263
v 0.146782 2.160047 0.065842
v 0.131719 2.160047 0.094024
v 0.111447 2.160047 0.118726
v 0.086745 2.160047 0.138998
v 0.058563 2.160047 0.154061
v 0.027984 2.160047 0.163337
v -0.003817 2.160047 0.166470
v -0.035618 2.160047 0.163337
v -0.066198 2.160047 0.154061
v -0.094379 2.160047 0.138998
v -0.119081 2.160047 0.118726
v -0.139353 2.160047 0.094024
v -0.154417 2.160047 0.065842
v -0.163693 2.160047 0.035263
v -0.166825 2.160047 0.003462
v -0.163693 2.160047 -0.028339
v -0.154417 2.160047 -0.058919
v -0.139353 2.160047 -0.087101
v -0.119081 2.160047 -0.111802
v -0.094379 2.160047 -0.132074
v -0.066198 2.160047 -0.147138
v -0.035618 2.160047 -0.156414
vn 0.0956 0.2199 -0.9708
vn 0.2832 0.2199 -0.9335
vn 0.4599 0.2199 -0.8603
vn 0.6189 0.2199 -0.7541
vn 0.7541 0.2199 -0.6189
vn 0.8603 0.2199 -0.4599
vn 0.9335 0.2199 -0.2832
vn 0.9708 0.2199 -0.0956
vn 0.9708 0.2199 0.0956
vn 0.9335 0.2199 0.2832
vn 0.8603 0.2199 0.4599
vn 0.7541 0.2199 0.6189
vn 0.6189 0.2199 0.7541
vn 0.4599 0.2199 0.8603
vn 0.2832 0.2199 0.9335
vn 0.0956 0.2199 0.9708
vn -0.0956 0.2199 0.9708
vn -0.2832 0.2199 0.9335
vn -0.4599 0.2199 0.8603
vn -0.6189 0.2199 0.7541
vn -0.7541 0.2199 0.6189
vn -0.8603 0.2199 0.4599
vn -0.9335 0.2199 0.2832
vn -0.9708 0.2199 0.0956
vn -0.9708 0.2199 -0.0956
vn -0.9335 0.2199 -0.2832
vn -0.8603 0.2199 -0.4599
vn -0.7541 0.2199 -0.6189
vn -0.6189 0.2199 -0.7541
vn -0.4599 0.2199 -0.8603
vn -0.7730 -0.0000 0.6344
vn -0.2832 0.2199 -0.9335
vn -0.0956 0.2199 -0.9708
vn -0.0000 -1.0000 -0.0000
vn -0.0000 1.0000 -0.0000
vn -0.4714 -0.0000 -0.8819
vn 0.9952 -0.0000 -0.0980
vn -0.0980 -0.0000 0.9952
vn -0.9569 -0.0000 -0.2903
vn 0.6344 -0.0000 -0.7730
vn 0.6344 -0.0000 0.7730
vn -0.8819 -0.0000 0.4714
vn -0.2903 -0.0000 -0.9569
vn 0.9952 -0.0000 0.0980
vn -0.2903 -0.0000 0.9569
vn -0.8819 -0.0000 -0.4714
vn 0.7730 -0.0000 -0.6344
vn 0.4714 -0.0000 0.8819
vn -0.9569 -0.0000 0.2903
vn 0.0980 -0.0000 -0.9952
vn -0.0980 -0.0000 -0.9952
vn 0.9569 -0.0000 0.2903
vn -0.4714 -0.0000 0.8819
vn -0.7730 -0.0000 -0.6344
vn 0.8819 -0.0000 -0.4714
vn 0.2903 -0.0000 0.9569
vn -0.9952 -0.0000 0.0980
vn 0.2903 -0.0000 -0.9569
vn 0.8819 -0.0000 0.4714
vn -0.6344 -0.0000 0.7730
vn -0.6344 -0.0000 -0.7730
vn 0.9569 -0.0000 -0.2903
vn 0.0980 -0.0000 0.9952
vn -0.9952 -0.0000 -0.0980
vn 0.4714 -0.0000 -0.8819
vn 0.7730 -0.0000 0.6344
vn 0.1843 -0.9569 -0.2246
vn -0.0843 -0.9569 -0.2780
vn -0.0843 -0.9569 0.2780
vn 0.2246 -0.9569 -0.1843
vn -0.0285 -0.9569 -0.2891
vn -0.1370 -0.9569 0.2562
vn 0.2562 -0.9569 -0.1370
vn -0.1843 -0.9569 0.2246
vn 0.2780 -0.9569 -0.0843
vn -0.2246 -0.9569 0.1843
vn 0.2891 -0.9569 -0.0285
vn -0.2562 -0.9569 0.1370
vn 0.2891 -0.9569 0.0285
vn -0.2780 -0.9569 0.0843
vn 0.2780 -0.9569 0.0843
vn -0.2891 -0.9569 0.0285
vn 0.2562 -0.9569 0.1370
vn -0.2891 -0.9569 -0.0285
vn 0.2246 -0.9569 0.1843
vn -0.2780 -0.9569 -0.0843
vn 0.1843 -0.9569 0.2246
vn -0.2562 -0.9569 -0.1370
vn 0.1370 -0.9569 0.2562
vn 0.0285 -0.9569 -0.2891
vn -0.2246 -0.9569 -0.1843
vn 0.0843 -0.9569 0.2780
vn 0.0843 -0.9569 -0.2780
vn -0.1843 -0.9569 -0.2246
vn 0.0285 -0.9569 0.2891
vn 0.1370 -0.9569 -0.2562
vn -0.1370 -0.9569 -0.2562
vn -0.0285 -0.9569 0.2891
vn 0.2985 0.9501 0.0905
vn -0.3104 0.9501 0.0306
vn 0.2751 0.9501 0.1470
vn -0.3104 0.9501 -0.0306
vn 0.2411 0.9501 0.1979
vn -0.2985 0.9501 -0.0905
vn 0.1979 0.9501 0.2411
vn -0.2751 0.9501 -0.1470
vn 0.1470 0.9501 0.2751
vn 0.0306 0.9501 -0.3104
vn -0.2411 0.9501 -0.1979
vn 0.0906 0.9501 0.2985
vn 0.0905 0.9501 -0.2985
vn -0.1979 0.9501 -0.2411
vn 0.0306 0.9501 0.3104
vn 0.1470 0.9501 -0.2751
vn -0.1470 0.9501 -0.2751
vn -0.0306 0.9501 0.3104
vn 0.1979 0.9501 -0.2411
vn -0.0905 0.9501 -0.2985
vn -0.0906 0.9501 0.2985
vn 0.2411 0.9501 -0.1979
vn -0.0306 0.9501 -0.3104
vn -0.1470 0.9501 0.2751
vn 0.2751 0.9501 -0.1470
vn -0.1979 0.9501 0.2411
vn 0.2985 0.9501 -0.0905
vn -0.2411 0.9501 0.1979
vn 0.3104 0.9501 -0.0306
vn -0.2751 0.9501 0.1470
vn 0.3104 0.9501 0.0306
vn -0.2985 0.9501 0.0905
vt 1.000000 0.500000
vt 1.000000 1.000000
vt 0.968750 1.000000
vt 0.968750 0.500000
vt 0.937500 1.000000
vt 0.937500 0.500000
vt 0.906250 1.000000
vt 0.906250 0.500000
vt 0.875000 1.000000
vt 0.875000 0.500000
vt 0.843750 1.000000
vt 0.843750 0.500000
vt 0.812500 1.000000
vt 0.812500 0.500000
vt 0.781250 1.000000
vt 0.781250 0.500000
vt 0.750000 1.000000
vt 0.750000 0.500000
vt 0.718750 1.000000
vt 0.718750 0.500000
vt 0.687500 1.000000
vt 0.687500 0.500000
vt 0.656250 1.000000
vt 0.656250 0.500000
vt 0.625000 1.000000
vt 0.625000 0.500000
vt 0.593750 1.000000
vt 0.593750 0.500000
vt 0.562500 1.000000
vt 0.562500 0.500000
vt 0.531250 1.000000
vt 0.531250 0.500000
vt 0.500000 1.000000
vt 0.500000 0.500000
vt 0.468750 1.000000
vt 0.468750 0.500000
vt 0.437500 1.000000
vt 0.437500 0.500000
vt 0.406250 1.000000
vt 0.406250 0.500000
vt 0.375000 1.000000
vt 0.375000 0.500000
vt 0.343750 1.000000
vt 0.343750 0.500000
vt 0.312500 1.000000
vt 0.312500 0.500000
vt 0.281250 1.000000
vt 0.281250 0.500000
vt 0.250000 1.000000
vt 0.250000 0.500000
vt 0.218750 1.000000
vt 0.218750 0.500000
vt 0.187500 1.000000
vt 0.187500 0.500000
vt 0.156250 1.000000
vt 0.156250 0.500000
vt 0.125000 1.000000
vt 0.125000 0.500000
vt 0.093750 1.000000
vt 0.093750 0.500000
vt 0.062500 1.000000
vt 0.062500 0.500000
vt 0.031250 1.000000
vt 0.031250 0.500000
vt 0.000000 1.000000
vt 0.000000 0.500000
vt 0.750000 0.490000
vt 0.796822 0.485388
vt 0.841844 0.471731
vt 0.883337 0.449553
vt 0.919706 0.419706
vt 0.949553 0.383337
vt 0.971731 0.341844
vt 0.985388 0.296822
vt 0.990000 0.250000
vt 0.985388 0.203178
vt 0.971731 0.158156
vt 0.949553 0.116663
vt 0.919706 0.080294
vt 0.883337 0.050447
vt 0.841844 0.028269
vt 0.796822 0.014612
vt 0.750000 0.010000
vt 0.703178 0.014612
vt 0.658156 0.028269
vt 0.616663 0.050447
vt 0.580294 0.080294
vt 0.550447 0.116663
vt 0.528269 0.158156
vt 0.514612 0.203178
vt 0.510000 0.250000
vt 0.514612 0.296822
vt 0.528269 0.341844
vt 0.550447 0.383337
vt 0.580294 0.419706
vt 0.616663 0.449553
vt 0.658156 0.471731
vt 0.703178 0.485388
vt 0.296822 0.485388
vt 0.250000 0.490000
vt 0.203178 0.485388
vt 0.158156 0.471731
vt 0.116663 0.449553
vt 0.080294 0.419706
vt 0.050447 0.383337
vt 0.028269 0.341844
vt 0.014612 0.296822
vt 0.010000 0.250000
vt 0.014612 0.203178
vt 0.028269 0.158156
vt 0.050447 0.116663
vt 0.080294 0.080294
vt 0.116663 0.050447
vt 0.158156 0.028269
vt 0.203178 0.014612
vt 0.250000 0.010000
vt 0.296822 0.014612
vt 0.341844 0.028269
vt 0.383337 0.050447
vt 0.419706 0.080294
vt 0.449553 0.116663
vt 0.471731 0.158156
vt 0.485388 0.203178
vt 0.490000 0.250000
vt 0.485388 0.296822
vt 0.471731 0.341844
vt 0.449553 0.383337
vt 0.419706 0.419706
vt 0.383337 0.449553
vt 0.341844 0.471731
s 0
usemtl Wood
f 3/4/2 4/3/2 6/5/2 5/6/2
f 44/43/31 42/41/31 85/41/31 86/43/31
f 75/21/35 74/19/35 106/19/35 107/21/35
f 62/61/36 60/59/36 94/59/36 95/61/36
f 18/17/37 16/15/37 72/15/37 73/17/37
f 36/35/38 34/33/38 81/33/38 82/35/38
f 54/53/39 52/51/39 90/51/39 91/53/39
f 10/9/40 8/7/40 68/7/40 69/9/40
f 28/27/41 26/25/41 77/25/41 78/27/41
f 46/45/42 44/43/42 86/43/42 87/45/42
f 64/63/43 62/61/43 95/61/43 96/63/43
f 20/19/44 18/17/44 73/17/44 74/19/44
f 38/37/45 36/35/45 82/35/45 83/37/45
f 56/55/46 54/53/46 91/53/46 92/55/46
f 12/11/47 10/9/47 69/9/47 70/11/47
f 30/29/48 28/27/48 78/27/48 79/29/48
f 48/47/49 46/45/49 87/45/49 88/47/49
f 4/3/50 2/2/50 66/2/50 65/3/50
f 2/65/51 64/63/51 96/63/51 66/65/51
f 22/21/52 20/19/52 74/19/52 75/21/52
f 40/39/53 38/37/53 83/37/53 84/39/53
f 58/57/54 56/55/54 92/55/54 93/57/54
f 14/13/55 12/11/55 70/11/55 71/13/55
f 32/31/56 30/29/56 79/29/56 80/31/56
f 50/49/57 48/47/57 88/47/57 89/49/57
f 6/5/58 4/3/58 65/3/58 67/5/58
f 24/23/59 22/21/59 75/21/59 76/23/59
f 42/41/60 40/39/60 84/39/60 85/41/60
f 60/59/61 58/57/61 93/57/61 94/59/61
f 16/15/62 14/13/62 71/13/62 72/15/62
f 34/33/63 32/31/63 80/31/63 81/33/63
f 52/51/64 50/49/64 89/49/64 90/51/64
f 8/7/65 6/5/65 67/5/65 68/7/65
f 26/25/66 24/23/66 76/23/66 77/25/66
f 97/3/35 98/2/35 130/2/35 129/3/35
f 89/49/35 88/47/35 120/47/35 121/49/35
f 76/23/35 75/21/35 107/21/35 108/23/35
f 90/51/35 89/49/35 121/49/35 122/51/35
f 77/25/35 76/23/35 108/23/35 109/25/35
f 91/53/35 90/51/35 122/51/35 123/53/35
f 78/27/35 77/25/35 109/25/35 110/27/35
f 92/55/35 91/53/35 123/53/35 124/55/35
f 79/29/35 78/27/35 110/27/35 111/29/35
f 65/3/35 66/2/35 98/2/35 97/3/35
f 93/57/35 92/55/35 124/55/35 125/57/35
f 80/31/35 79/29/35 111/29/35 112/31/35
f 67/5/35 65/3/35 97/3/35 99/5/35
f 94/59/35 93/57/35 125/57/35 126/59/35
f 81/33/35 80/31/35 112/31/35 113/33/35
f 68/7/35 67/5/35 99/5/35 100/7/35
f 95/61/35 94/59/35 126/59/35 127/61/35
f 82/35/35 81/33/35 113/33/35 114/35/35
f 69/9/35 68/7/35 100/7/35 101/9/35
f 96/63/35 95/61/35 127/61/35 128/63/35
f 83/37/35 82/35/35 114/35/35 115/37/35
f 70/11/35 69/9/35 101/9/35 102/11/35
f 66/65/35 96/63/35 128/63/35 98/65/35
f 84/39/35 83/37/35 115/37/35 116/39/35
f 71/13/35 70/11/35 102/11/35 103/13/35
f 85/41/35 84/39/35 116/39/35 117/41/35
f 72/15/35 71/13/35 103/13/35 104/15/35
f 86/43/35 85/41/35 117/41/35 118/43/35
f 73/17/35 72/15/35 104/15/35 105/17/35
f 87/45/35 86/43/35 118/43/35 119/45/35
f 74/19/35 73/17/35 105/17/35 106/19/35
f 88/47/35 87/45/35 119/45/35 120/47/35
f 125/57/35 124/55/35 156/55/35 157/57/35
f 112/31/35 111/29/35 143/29/35 144/31/35
f 99/5/35 97/3/35 129/3/35 131/5/35
f 126/59/35 125/57/35 157/57/35 158/59/35
f 113/33/35 112/31/35 144/31/35 145/33/35
f 100/7/35 99/5/35 131/5/35 132/7/35
f 127/61/35 126/59/35 158/59/35 159/61/35
f 114/35/35 113/33/35 145/33/35 146/35/35
f 101/9/35 100/7/35 132/7/35 133/9/35
f 128/63/35 127/61/35 159/61/35 160/63/35
f 115/37/35 114/35/35 146/35/35 147/37/35
f 102/11/35 101/9/35 133/9/35 134/11/35
f 98/65/35 128/63/35 160/63/35 130/65/35
f 116/39/35 115/37/35 147/37/35 148/39/35
f 103/13/35 102/11/35 134/11/35 135/13/35
f 117/41/35 116/39/35 148/39/35 149/41/35
f 104/15/35 103/13/35 135/13/35 136/15/35
f 118/43/35 117/41/35 149/41/35 150/43/35
f 105/17/35 104/15/35 136/15/35 137/17/35
f 119/45/35 118/43/35 150/43/35 151/45/35
f 106/19/35 105/17/35 137/17/35 138/19/35
f 120/47/35 119/45/35 151/45/35 152/47/35
f 107/21/35 106/19/35 138/19/35 139/21/35
f 121/49/35 120/47/35 152/47/35 153/49/35
f 108/23/35 107/21/35 139/21/35 140/23/35
f 122/51/35 121/49/35 153/49/35 154/51/35
f 109/25/35 108/23/35 140/23/35 141/25/35
f 123/53/35 122/51/35 154/51/35 155/53/35
f 110/27/35 109/25/35 141/25/35 142/27/35
f 124/55/35 123/53/35 155/53/35 156/55/35
f 111/29/35 110/27/35 142/27/35 143/29/35
usemtl Metal
f 1/1/1 2/2/1 4/3/1 3/4/1
f 5/6/3 6/5/3 8/7/3 7/8/3
f 7/8/4 8/7/4 10/9/4 9/10/4
f 9/10/5 10/9/5 12/11/5 11/12/5
f 11/12/6 12/11/6 14/13/6 13/14/6
f 13/14/7 14/13/7 16/15/7 15/16/7
f 15/16/8 16/15/8 18/17/8 17/18/8
f 17/18/9 18/17/9 20/19/9 19/20/9
f 19/20/10 20/19/10 22/21/10 21/22/10
f 21/22/11 22/21/11 24/23/11 23/24/11
f 23/24/12 24/23/12 26/25/12 25/26/12
f 25/26/13 26/25/13 28/27/13 27/28/13
f 27/28/14 28/27/14 30/29/14 29/30/14
f 29/30/15 30/29/15 32/31/15 31/32/15
f 31/32/16 32/31/16 34/33/16 33/34/16
f 33/34/17 34/33/17 36/35/17 35/36/17
f 35/36/18 36/35/18 38/37/18 37/38/18
f 37/38/19 38/37/19 40/39/19 39/40/19
f 39/40/20 40/39/20 42/41/20 41/42/20
f 41/42/21 42/41/21 44/43/21 43/44/21
f 43/44/22 44/43/22 46/45/22 45/46/22
f 45/46/23 46/45/23 48/47/23 47/48/23
f 47/48/24 48/47/24 50/49/24 49/50/24
f 49/50/25 50/49/25 52/51/25 51/52/25
f 51/52/26 52/51/26 54/53/26 53/54/26
f 53/54/27 54/53/27 56/55/27 55/56/27
f 55/56/28 56/55/28 58/57/28 57/58/28
f 57/58/29 58/57/29 60/59/29 59/60/29
f 59/60/30 60/59/30 62/61/30 61/62/30
f 61/62/32 62/61/32 64/63/32 63/64/32
f 63/64/33 64/63/33 2/65/33 1/66/33
f 1/67/34 3/68/34 5/69/34 7/70/34 9/71/34 11/72/34 13/73/34 15/74/34 17/75/34 19/76/34 21/77/34 23/78/34 25/79/34 27/80/34 29/81/34 31/82/34 33/83/34 35/84/34 37/85/34 39/86/34 41/87/34 43/88/34 45/89/34 47/90/34 49/91/34 51/92/34 53/93/34 55/94/34 57/95/34 59/96/34 61/97/34 63/98/34
f 133/9/67 132/7/67 164/7/67 165/9/67
f 168/15/62 167/13/62 199/13/62 200/15/62
f 160/63/68 159/61/68 191/61/68 192/63/68
f 147/37/69 146/35/69 178/35/69 179/37/69
f 134/11/70 133/9/70 165/9/70 166/11/70
f 130/65/71 160/63/71 192/63/71 162/65/71
f 148/39/72 147/37/72 179/37/72 180/39/72
f 135/13/73 134/11/73 166/11/73 167/13/73
f 149/41/74 148/39/74 180/39/74 181/41/74
f 136/15/75 135/13/75 167/13/75 168/15/75
f 150/43/76 149/41/76 181/41/76 182/43/76
f 137/17/77 136/15/77 168/15/77 169/17/77
f 151/45/78 150/43/78 182/43/78 183/45/78
f 138/19/79 137/17/79 169/17/79 170/19/79
f 152/47/80 151/45/80 183/45/80 184/47/80
f 139/21/81 138/19/81 170/19/81 171/21/81
f 153/49/82 152/47/82 184/47/82 185/49/82
f 140/23/83 139/21/83 171/21/83 172/23/83
f 154/51/84 153/49/84 185/49/84 186/51/84
f 141/25/85 140/23/85 172/23/85 173/25/85
f 155/53/86 154/51/86 186/51/86 187/53/86
f 142/27/87 141/25/87 173/25/87 174/27/87
f 156/55/88 155/53/88 187/53/88 188/55/88
f 143/29/89 142/27/89 174/27/89 175/29/89
f 129/3/90 130/2/90 162/2/90 161/3/90
f 157/57/91 156/55/91 188/55/91 189/57/91
f 144/31/92 143/29/92 175/29/92 176/31/92
f 131/5/93 129/3/93 161/3/93 163/5/93
f 158/59/94 157/57/94 189/57/94 190/59/94
f 145/33/95 144/31/95 176/31/95 177/33/95
f 132/7/96 131/5/96 163/5/96 164/7/96
f 159/61/97 158/59/97 190/59/97 191/61/97
f 146/35/98 145/33/98 177/33/98 178/35/98
f 203/21/99 202/19/99 234/19/99 235/21/99
f 182/43/31 181/41/31 213/41/31 214/43/31
f 169/17/37 168/15/37 200/15/37 201/17/37
f 183/45/42 182/43/42 214/43/42 215/45/42
f 170/19/44 169/17/44 201/17/44 202/19/44
f 184/47/49 183/45/49 215/45/49 216/47/49
f 171/21/52 170/19/52 202/19/52 203/21/52
f 185/49/57 184/47/57 216/47/57 217/49/57
f 172/23/59 171/21/59 203/21/59 204/23/59
f 186/51/64 185/49/64 217/49/64 218/51/64
f 173/25/66 172/23/66 204/23/66 205/25/66
f 187/53/39 186/51/39 218/51/39 219/53/39
f 174/27/41 173/25/41 205/25/41 206/27/41
f 188/55/46 187/53/46 219/53/46 220/55/46
f 175/29/48 174/27/48 206/27/48 207/29/48
f 161/3/50 162/2/50 194/2/50 193/3/50
f 189/57/54 188/55/54 220/55/54 221/57/54
f 176/31/56 175/29/56 207/29/56 208/31/56
f 163/5/58 161/3/58 193/3/58 195/5/58
f 190/59/61 189/57/61 221/57/61 222/59/61
f 177/33/63 176/31/63 208/31/63 209/33/63
f 164/7/65 163/5/65 195/5/65 196/7/65
f 191/61/36 190/59/36 222/59/36 223/61/36
f 178/35/38 177/33/38 209/33/38 210/35/38
f 165/9/40 164/7/40 196/7/40 197/9/40
f 192/63/43 191/61/43 223/61/43 224/63/43
f 179/37/45 178/35/45 210/35/45 211/37/45
f 166/11/47 165/9/47 197/9/47 198/11/47
f 162/65/51 192/63/51 224/63/51 194/65/51
f 180/39/53 179/37/53 211/37/53 212/39/53
f 167/13/55 166/11/55 198/11/55 199/13/55
f 181/41/60 180/39/60 212/39/60 213/41/60
f 225/99/35 226/100/35 256/101/35 255/102/35 254/103/35 253/104/35 252/105/35 251/106/35 250/107/35 249/108/35 248/109/35 247/110/35 246/111/35 245/112/35 244/113/35 243/114/35 242/115/35 241/116/35 240/117/35 239/118/35 238/119/35 237/120/35 236/121/35 235/122/35 234/123/35 233/124/35 232/125/35 231/126/35 230/127/35 229/128/35 228/129/35 227/130/35
f 217/49/100 216/47/100 248/47/100 249/49/100
f 204/23/101 203/21/101 235/21/101 236/23/101
f 218/51/102 217/49/102 249/49/102 250/51/102
f 205/25/103 204/23/103 236/23/103 237/25/103
f 219/53/104 218/51/104 250/51/104 251/53/104
f 206/27/105 205/25/105 237/25/105 238/27/105
f 220/55/106 219/53/106 251/53/106 252/55/106
f 207/29/107 206/27/107 238/27/107 239/29/107
f 193/3/108 194/2/108 226/2/108 225/3/108
f 221/57/109 220/55/109 252/55/109 253/57/109
f 208/31/110 207/29/110 239/29/110 240/31/110
f 195/5/111 193/3/111 225/3/111 227/5/111
f 222/59/112 221/57/112 253/57/112 254/59/112
f 209/33/113 208/31/113 240/31/113 241/33/113
f 196/7/114 195/5/114 227/5/114 228/7/114
f 223/61/115 222/59/115 254/59/115 255/61/115
f 210/35/116 209/33/116 241/33/116 242/35/116
f 197/9/117 196/7/117 228/7/117 229/9/117
f 224/63/118 223/61/118 255/61/118 256/63/118
f 211/37/119 210/35/119 242/35/119 243/37/119
f 198/11/120 197/9/120 229/9/120 230/11/120
f 194/65/121 224/63/121 256/63/121 226/65/121
f 212/39/122 211/37/122 243/37/122 244/39/122
f 199/13/123 198/11/123 230/11/123 231/13/123
f 213/41/124 212/39/124 244/39/124 245/41/124
f 200/15/125 199/13/125 231/13/125 232/15/125
f 214/43/126 213/41/126 245/41/126 246/43/126
f 201/17/127 200/15/127 232/15/127 233/17/127
f 215/45/128 214/43/128 246/43/128 247/45/128
f 202/19/129 201/17/129 233/17/129 234/19/129
f 216/47/130 215/45/130 247/45/130 248/47/130
